<svg xmlns="http://www.w3.org/2000/svg" xmlns:xlink="http://www.w3.org/1999/xlink" width="315" zoomAndPan="magnify" viewBox="0 0 236.25 86.999996" height="116" preserveAspectRatio="xMidYMid meet" version="1.0"><defs><g/><clipPath id="2b7d769b8a"><path d="M 185.351562 33.167969 L 234.695312 33.167969 L 234.695312 58.585938 L 185.351562 58.585938 Z M 185.351562 33.167969 " clip-rule="nonzero"/></clipPath></defs><g clip-path="url(#2b7d769b8a)"><path fill="#004899" d="M 233.699219 34.054688 L 219.769531 33.226562 C 218.941406 33.167969 218.46875 34.117188 219 34.765625 L 222.496094 39.09375 C 222.851562 39.507812 222.734375 40.101562 222.378906 40.398438 L 212.125 48.578125 C 211.710938 48.875 211.175781 48.875 210.820312 48.457031 L 206.496094 43.480469 L 205.191406 42 C 204.835938 41.582031 204.242188 41.582031 203.886719 41.878906 L 202.523438 43.007812 L 186.105469 57.113281 C 185.75 57.410156 185.691406 57.941406 185.929688 58.355469 C 186.222656 58.773438 186.757812 58.890625 187.171875 58.652344 L 202.9375 49.644531 C 203.351562 49.40625 203.828125 49.527344 204.125 49.820312 L 208.867188 55.214844 L 210.167969 56.695312 C 210.523438 57.054688 211.058594 57.113281 211.472656 56.816406 L 213.015625 55.570312 L 226.113281 44.960938 C 226.527344 44.605469 227.121094 44.726562 227.417969 45.082031 L 230.914062 49.40625 C 231.449219 50.058594 232.453125 49.761719 232.574219 48.933594 L 234.648438 35.121094 C 234.648438 34.589844 234.234375 34.054688 233.699219 34.054688 Z M 233.699219 34.054688 " fill-opacity="1" fill-rule="nonzero"/></g><g fill="#004899" fill-opacity="1"><g transform="translate(16.945065, 58.87338)"><g><path d="M 29.828125 0 L 19.25 -30.59375 L 11.90625 -30.59375 L 1.078125 0 L 7.828125 0 L 9.890625 -6.359375 L 20.96875 -6.359375 L 23.03125 0 Z M 12.84375 -15.390625 L 15.46875 -24.1875 L 18.046875 -15.390625 L 19.296875 -11.609375 L 11.609375 -11.609375 Z M 12.84375 -15.390625 "/></g></g></g><g fill="#004899" fill-opacity="1"><g transform="translate(46.332652, 58.87338)"><g><path d="M 12.03125 0.734375 C 17.625 0.734375 21.40625 -2.359375 22.296875 -7.65625 L 16.375 -7.65625 C 15.6875 -5.25 14.265625 -4 12.125 -4 C 9.03125 -4 7.21875 -6.484375 7.21875 -11 C 7.21875 -15.515625 9.03125 -18 12.125 -18 C 14.3125 -18 15.734375 -16.84375 16.375 -14.4375 L 22.296875 -14.4375 C 21.40625 -19.6875 17.703125 -22.734375 12.03125 -22.734375 C 5.453125 -22.734375 1.375 -18.140625 1.375 -11 C 1.375 -3.875 5.453125 0.734375 12.03125 0.734375 Z M 12.03125 0.734375 "/></g></g></g><g fill="#004899" fill-opacity="1"><g transform="translate(68.330239, 58.87338)"><g><path d="M 12.03125 0.734375 C 17.625 0.734375 21.40625 -2.359375 22.296875 -7.65625 L 16.375 -7.65625 C 15.6875 -5.25 14.265625 -4 12.125 -4 C 9.03125 -4 7.21875 -6.484375 7.21875 -11 C 7.21875 -15.515625 9.03125 -18 12.125 -18 C 14.3125 -18 15.734375 -16.84375 16.375 -14.4375 L 22.296875 -14.4375 C 21.40625 -19.6875 17.703125 -22.734375 12.03125 -22.734375 C 5.453125 -22.734375 1.375 -18.140625 1.375 -11 C 1.375 -3.875 5.453125 0.734375 12.03125 0.734375 Z M 12.03125 0.734375 "/></g></g></g><g fill="#004899" fill-opacity="1"><g transform="translate(90.327823, 58.87338)"><g><path d="M 23.671875 -10.3125 C 23.671875 -18.09375 18.859375 -22.734375 12.296875 -22.734375 C 5.5 -22.734375 1.375 -17.65625 1.375 -11.171875 C 1.375 -4.390625 5.59375 0.734375 12.9375 0.734375 C 17.921875 0.734375 21.609375 -1.59375 23.125 -6.40625 L 17.109375 -6.828125 C 16.375 -4.90625 14.90625 -3.953125 12.8125 -3.953125 C 9.796875 -3.953125 7.859375 -5.9375 7.609375 -9.28125 L 23.671875 -9.28125 Z M 12.5 -18.3125 C 15.25 -18.3125 17.0625 -16.5 17.40625 -13.40625 L 7.5625 -13.40625 C 7.859375 -16.453125 9.75 -18.3125 12.5 -18.3125 Z M 12.5 -18.3125 "/></g></g></g><g fill="#0072bb" fill-opacity="1"><g transform="translate(113.87952, 58.87338)"><g><path d="M 8.640625 0 L 8.640625 -30.59375 L 2.578125 -30.59375 L 2.578125 0 Z M 8.640625 0 "/></g></g></g><g fill="#0072bb" fill-opacity="1"><g transform="translate(123.589092, 58.87338)"><g><path d="M 23.671875 -10.3125 C 23.671875 -18.09375 18.859375 -22.734375 12.296875 -22.734375 C 5.5 -22.734375 1.375 -17.65625 1.375 -11.171875 C 1.375 -4.390625 5.59375 0.734375 12.9375 0.734375 C 17.921875 0.734375 21.609375 -1.59375 23.125 -6.40625 L 17.109375 -6.828125 C 16.375 -4.90625 14.90625 -3.953125 12.8125 -3.953125 C 9.796875 -3.953125 7.859375 -5.9375 7.609375 -9.28125 L 23.671875 -9.28125 Z M 12.5 -18.3125 C 15.25 -18.3125 17.0625 -16.5 17.40625 -13.40625 L 7.5625 -13.40625 C 7.859375 -16.453125 9.75 -18.3125 12.5 -18.3125 Z M 12.5 -18.3125 "/></g></g></g><g fill="#0072bb" fill-opacity="1"><g transform="translate(147.133427, 58.87338)"><g><path d="M 13.671875 -22.78125 C 11.21875 -22.78125 9.40625 -21.484375 8.421875 -19.125 L 8.515625 -22.171875 L 2.578125 -22.171875 L 2.578125 0 L 8.640625 0 L 8.640625 -10.78125 C 8.640625 -15.078125 10.4375 -17.1875 14.140625 -17.1875 C 14.5625 -17.1875 14.953125 -17.140625 15.390625 -17.109375 L 15.390625 -22.609375 C 14.78125 -22.734375 14.1875 -22.78125 13.671875 -22.78125 Z M 13.671875 -22.78125 "/></g></g></g><g fill="#0072bb" fill-opacity="1"><g transform="translate(161.86991, 58.87338)"><g><path d="M 22.21875 0 C 21.578125 -1.125 21.359375 -2.578125 21.359375 -4.640625 L 21.359375 -14.4375 C 21.359375 -19.890625 18.140625 -22.6875 11.78125 -22.6875 C 5.796875 -22.6875 2.75 -20.40625 2.328125 -15.5625 L 7.859375 -15.46875 C 8.171875 -17.53125 9.328125 -18.390625 11.8125 -18.390625 C 14.21875 -18.390625 15.5625 -17.625 15.5625 -15.984375 L 15.5625 -14.359375 L 7.828125 -12.8125 C 3.359375 -11.90625 1.078125 -9.625 1.078125 -6.109375 C 1.078125 -2.0625 4.078125 0.640625 8.765625 0.640625 C 11.6875 0.640625 14.09375 -0.4375 15.59375 -2.234375 C 15.734375 -1.46875 15.90625 -0.78125 16.078125 0 Z M 10.484375 -3.828125 C 8.25 -3.828125 7 -4.90625 7 -6.484375 C 7 -7.953125 8.03125 -8.890625 9.890625 -9.28125 L 15.5625 -10.484375 L 15.5625 -8.859375 C 15.5625 -5.59375 13.359375 -3.828125 10.484375 -3.828125 Z M 10.484375 -3.828125 "/></g></g></g></svg>