<svg xmlns="http://www.w3.org/2000/svg" xmlns:xlink="http://www.w3.org/1999/xlink" width="500" zoomAndPan="magnify" viewBox="0 0 375 374.999991" height="500" preserveAspectRatio="xMidYMid meet" version="1.0"><defs><clipPath id="3c651c3e28"><path d="M 35 107.164062 L 341 107.164062 L 341 267.664062 L 35 267.664062 Z M 35 107.164062 " clip-rule="nonzero"/></clipPath></defs><g clip-path="url(#3c651c3e28)"><path fill="#004899" d="M 334.460938 112.71875 L 247.464844 107.535156 C 242.285156 107.164062 239.320312 113.089844 242.652344 117.160156 L 264.496094 144.183594 C 266.714844 146.777344 265.976562 150.476562 263.753906 152.328125 L 199.710938 203.414062 C 197.121094 205.265625 193.789062 205.265625 191.566406 202.675781 L 164.542969 171.578125 L 156.398438 162.324219 C 154.175781 159.734375 150.476562 159.734375 148.253906 161.582031 L 139.738281 168.617188 L 37.195312 256.722656 C 34.976562 258.574219 34.605469 261.90625 36.085938 264.496094 C 37.9375 267.089844 41.269531 267.828125 43.859375 266.347656 L 142.332031 210.078125 C 144.921875 208.597656 147.882812 209.339844 149.734375 211.191406 L 179.351562 244.878906 L 187.496094 254.132812 C 189.714844 256.351562 193.046875 256.722656 195.640625 254.871094 L 205.265625 247.097656 L 287.078125 180.832031 C 289.667969 178.613281 293.371094 179.351562 295.222656 181.574219 L 317.0625 208.597656 C 320.394531 212.671875 326.6875 210.820312 327.429688 205.636719 L 340.386719 119.382812 C 340.386719 116.050781 337.792969 112.71875 334.460938 112.71875 Z M 334.460938 112.71875 " fill-opacity="1" fill-rule="nonzero"/></g></svg>